<?xml version="1.0" standalone="no"?>
<!DOCTYPE svg PUBLIC "-//W3C//DTD SVG 20010904//EN"
 "http://www.w3.org/TR/2001/REC-SVG-20010904/DTD/svg10.dtd">
<svg version="1.0" xmlns="http://www.w3.org/2000/svg"
 width="500.000000pt" height="500.000000pt" viewBox="0 0 500.000000 500.000000"
 preserveAspectRatio="xMidYMid meet">
<metadata>
Created by potrace 1.16, written by Peter Selinger 2001-2019
</metadata>
<g transform="translate(0.000000,500.000000) scale(0.100000,-0.100000)"
fill="#000000" stroke="none">
<path d="M1873 4986 c-99 -32 -143 -76 -313 -313 -63 -88 -128 -170 -145 -182
-18 -12 -130 -51 -251 -87 -237 -71 -281 -92 -337 -153 -82 -91 -96 -159 -97
-456 0 -104 -5 -206 -10 -225 -5 -19 -75 -123 -155 -230 -160 -214 -185 -264
-185 -363 1 -90 28 -147 167 -344 67 -94 130 -187 140 -205 16 -30 18 -61 18
-308 l0 -275 26 -56 c32 -69 91 -130 156 -162 26 -13 139 -55 251 -92 158 -54
212 -76 243 -103 21 -18 39 -37 39 -42 0 -5 -25 -51 -55 -104 -30 -52 -55
-104 -55 -116 0 -27 43 -70 70 -70 37 0 58 18 92 80 18 33 36 60 40 60 4 0 39
-47 79 -105 82 -121 130 -167 206 -195 105 -39 142 -37 299 14 77 25 143 46
147 46 3 0 -41 -82 -99 -183 -59 -100 -158 -273 -222 -385 l-117 -203 -96 194
c-70 139 -104 196 -121 203 -16 8 -82 7 -227 -3 -112 -7 -206 -11 -208 -9 -3
2 29 64 71 137 42 73 76 141 76 151 0 27 -45 68 -73 68 -14 0 -34 -8 -46 -17
-11 -10 -69 -101 -127 -203 -148 -258 -149 -290 -11 -290 61 0 274 12 415 24
l53 5 115 -232 c64 -127 124 -237 133 -244 25 -19 57 -15 84 9 14 13 130 205
258 428 128 223 260 452 294 510 l62 105 38 -2 c20 -2 43 -7 50 -13 7 -6 45
-68 85 -138 293 -510 515 -889 529 -899 22 -17 52 -16 80 3 13 10 68 107 132
238 61 121 113 224 117 227 4 4 93 1 197 -7 274 -19 338 -18 358 4 10 10 17
29 17 43 0 30 -226 426 -250 439 -31 16 -60 11 -85 -15 -14 -13 -25 -34 -25
-46 0 -13 34 -81 75 -152 42 -71 74 -131 72 -134 -2 -2 -96 3 -208 10 -113 8
-214 10 -226 6 -16 -6 -49 -61 -118 -199 -52 -104 -98 -190 -103 -190 -4 0
-29 39 -56 88 -27 48 -121 210 -208 361 -88 150 -158 275 -156 276 2 2 40 -9
84 -25 112 -39 178 -46 250 -25 101 28 149 68 259 218 55 75 102 136 105 137
3 0 20 -28 39 -62 58 -106 100 -131 152 -90 36 30 28 67 -34 177 -31 55 -57
102 -57 106 0 13 68 38 270 99 240 72 270 86 332 152 81 85 90 122 95 408 3
135 9 260 15 278 5 18 77 123 159 233 159 213 179 254 179 355 0 87 -26 139
-168 344 -75 107 -142 212 -149 233 -10 29 -13 102 -11 295 l3 257 -26 55
c-33 70 -72 116 -128 151 -24 16 -140 60 -257 99 -117 39 -228 81 -246 94 -20
13 -85 98 -164 216 -150 222 -193 264 -306 301 -94 30 -124 25 -393 -67 -183
-62 -233 -75 -263 -70 -20 3 -131 40 -247 82 -230 83 -309 97 -392 70z m368
-216 c302 -103 282 -103 578 -5 125 41 243 75 263 75 83 0 120 -31 221 -180
159 -237 205 -297 254 -328 26 -17 129 -58 228 -92 264 -91 279 -97 308 -128
55 -57 59 -82 56 -356 -2 -171 1 -264 9 -293 13 -44 16 -49 191 -301 169 -243
169 -242 -38 -520 -81 -109 -156 -219 -166 -243 -16 -38 -19 -82 -24 -309 -6
-277 -8 -287 -55 -338 -32 -36 -51 -44 -301 -122 -126 -39 -245 -81 -264 -93
-21 -12 -96 -103 -193 -234 -181 -244 -200 -260 -297 -250 -33 3 -143 37 -264
81 -281 102 -278 102 -568 1 -216 -76 -268 -86 -326 -64 -47 18 -80 57 -214
256 -71 105 -143 203 -160 218 -49 41 -108 66 -322 140 -109 37 -212 77 -230
89 -18 12 -42 41 -55 66 -22 44 -23 51 -20 310 l2 265 -25 55 c-15 30 -80 132
-146 225 -66 94 -127 184 -137 202 -20 40 -21 125 0 164 8 17 78 114 154 217
77 102 147 206 156 231 14 37 18 99 23 306 9 363 -5 345 328 450 243 76 282
92 327 134 15 14 91 113 168 219 152 210 176 231 259 232 33 0 116 -24 280
-80z"/>
<path d="M2340 4528 c-121 -12 -286 -54 -420 -107 -202 -79 -368 -190 -535
-356 -224 -226 -363 -478 -436 -793 -32 -138 -37 -421 -11 -577 86 -503 407
-933 869 -1163 207 -104 394 -151 633 -159 189 -6 288 4 459 48 260 67 505
207 704 403 229 225 378 494 448 808 26 118 37 408 20 530 -48 334 -191 635
-418 876 -50 54 -63 62 -94 62 -44 0 -69 -25 -69 -68 0 -24 14 -47 64 -102
186 -206 302 -431 358 -693 31 -149 31 -418 -1 -567 -60 -278 -195 -525 -401
-730 -211 -212 -469 -349 -760 -406 -129 -25 -379 -25 -505 0 -196 38 -378
113 -542 222 -46 31 -83 57 -83 60 0 2 9 13 20 24 17 17 20 33 20 106 l0 87
69 -7 c83 -7 178 -36 219 -65 72 -51 76 -51 656 -51 l541 0 51 24 c84 39 144
127 144 212 0 16 -7 50 -16 75 l-17 45 27 27 c62 62 83 173 50 257 -16 41 -16
41 9 68 57 59 78 183 42 252 -16 31 -16 33 8 59 44 46 61 91 61 161 0 95 -44
169 -126 211 -34 18 -62 19 -378 19 -265 0 -340 3 -340 13 0 6 7 48 15 92 28
155 16 334 -37 529 -17 64 -29 87 -62 121 -79 82 -207 87 -293 12 -52 -45 -73
-98 -73 -182 0 -196 -68 -294 -322 -466 -68 -45 -143 -98 -167 -116 -24 -18
-48 -33 -52 -33 -5 0 -9 33 -9 73 0 114 7 111 -271 117 l-230 5 41 83 c141
292 376 526 678 677 183 90 353 133 572 142 266 11 525 -51 754 -182 44 -25
91 -45 106 -45 34 0 70 38 70 74 0 39 -37 68 -164 130 -198 97 -369 145 -582
166 -123 11 -160 11 -294 -2z m128 -546 c10 -10 29 -63 43 -118 21 -85 24
-122 23 -264 0 -150 -3 -173 -27 -253 -33 -108 -33 -120 -1 -146 26 -20 37
-21 406 -21 449 0 448 0 448 -95 0 -24 -7 -39 -26 -54 -24 -19 -40 -21 -151
-21 -118 0 -125 -1 -148 -25 -14 -13 -25 -36 -25 -50 0 -14 11 -37 25 -50 22
-23 31 -25 120 -25 93 0 98 -1 126 -29 31 -31 36 -55 18 -94 -17 -36 -50 -47
-148 -47 -74 0 -93 -3 -115 -21 -31 -25 -34 -66 -7 -100 16 -20 30 -24 97 -27
86 -4 116 -21 128 -68 8 -29 -16 -79 -43 -94 -11 -5 -63 -10 -115 -10 -111 0
-136 -14 -136 -74 0 -47 21 -60 108 -67 66 -5 79 -10 99 -33 46 -54 16 -127
-58 -141 -19 -3 -259 -5 -534 -3 l-500 3 -50 32 c-64 41 -156 70 -270 86 l-90
12 -3 447 -2 446 58 53 c32 30 129 103 215 162 199 137 275 201 325 277 61 91
83 159 91 284 7 97 10 111 30 128 29 23 66 23 89 0z m-950 -1334 l-3 -683 -30
-3 c-27 -3 -37 5 -84 63 -167 206 -270 420 -318 662 -31 160 -23 449 18 606
l10 37 204 0 205 0 -2 -682z"/>
<path d="M1270 3022 c-53 -17 -70 -97 -28 -126 66 -47 146 23 108 94 -11 20
-58 39 -80 32z"/>
</g>
</svg>
