<?xml version="1.0" standalone="no"?>
<!DOCTYPE svg PUBLIC "-//W3C//DTD SVG 20010904//EN"
 "http://www.w3.org/TR/2001/REC-SVG-20010904/DTD/svg10.dtd">
<svg version="1.0" xmlns="http://www.w3.org/2000/svg"
 width="1076.000000pt" height="522.000000pt" viewBox="0 0 1076.000000 522.000000"
 preserveAspectRatio="xMidYMid meet">

<g transform="translate(0.000000,522.000000) scale(0.100000,-0.100000)"
fill="#000000" stroke="none">
<path d="M0 2610 l0 -2610 5380 0 5380 0 0 2610 0 2610 -5380 0 -5380 0 0
-2610z m1898 1774 c70 -5 89 -10 85 -20 -3 -8 -1 -14 5 -14 6 0 12 4 14 9 2 4
12 -1 23 -11 20 -19 20 -19 0 -13 -16 6 -17 5 -5 -4 8 -6 23 -8 33 -5 9 3 17
0 17 -6 0 -7 9 -9 23 -5 14 4 18 3 9 -3 -9 -6 -6 -12 13 -20 15 -7 31 -9 37
-6 7 5 8 2 4 -5 -5 -7 0 -18 10 -26 22 -17 48 -20 39 -5 -3 6 -1 10 4 10 6 0
11 -6 11 -14 0 -7 21 -21 46 -31 31 -12 44 -22 40 -31 -3 -9 1 -14 13 -14 10
0 26 -9 36 -20 10 -11 22 -17 27 -14 10 6 74 -21 80 -34 5 -12 128 -72 128
-62 0 6 11 5 25 -2 14 -6 24 -17 21 -24 -5 -14 39 -28 56 -18 7 5 8 2 3 -6 -6
-10 -3 -12 13 -8 14 4 20 2 15 -5 -4 -6 0 -8 10 -4 9 3 18 -1 21 -10 4 -10 15
-14 36 -11 16 2 27 1 24 -4 -5 -8 10 -12 34 -9 7 1 15 -5 18 -13 3 -9 10 -14
14 -11 5 3 15 -2 24 -11 9 -8 20 -13 25 -10 5 3 12 -1 15 -10 4 -10 14 -14 26
-11 11 3 26 -3 36 -14 9 -10 21 -16 26 -13 5 4 19 -4 30 -16 16 -17 22 -19 29
-9 6 10 11 6 18 -13 8 -20 15 -25 38 -22 29 3 56 -12 48 -26 -3 -5 0 -12 6
-16 8 -4 9 -3 5 4 -8 14 -4 15 18 6 9 -3 16 -12 16 -20 0 -16 26 -19 35 -4 3
6 11 10 16 10 6 0 7 -4 4 -10 -3 -5 0 -10 8 -10 18 0 77 -53 77 -71 1 -11 4
-10 14 3 11 16 18 10 68 -50 187 -228 321 -510 378 -798 38 -192 35 -460 -9
-644 -122 -521 -531 -935 -1076 -1089 -324 -91 -686 -90 -1032 4 -277 76 -581
236 -810 428 -406 341 -669 838 -690 1303 -6 138 13 414 28 414 5 0 9 7 9 16
0 8 -4 12 -10 9 -6 -3 -7 1 -4 10 4 9 9 13 12 10 3 -3 12 18 19 47 30 121 187
400 303 536 304 357 829 570 1318 536z m399 -50 c-3 -3 -12 -4 -19 -1 -8 3 -5
6 6 6 11 1 17 -2 13 -5z m40 -10 c-3 -3 -12 -4 -19 -1 -8 3 -5 6 6 6 11 1 17
-2 13 -5z m137 -34 c5 0 7 -2 4 -5 -8 -8 -108 15 -108 25 0 5 21 3 48 -5 26
-8 51 -15 56 -15z m91 -40 c3 -6 -1 -7 -9 -4 -18 7 -21 14 -7 14 6 0 13 -4 16
-10z m292 -136 c-5 -5 -77 35 -77 42 0 3 18 -5 41 -16 23 -12 39 -24 36 -26z
m511 -409 c-3 -3 -9 2 -12 12 -6 14 -5 15 5 6 7 -7 10 -15 7 -18z m-3164 -623
c-8 -41 -19 -81 -24 -90 -10 -15 -10 -14 -6 3 2 11 7 36 11 55 10 55 26 112
30 109 2 -2 -3 -37 -11 -77z m-47 -324 c-2 -18 -4 -4 -4 32 0 36 2 50 4 33 2
-18 2 -48 0 -65z m0 -95 c-3 -10 -5 -2 -5 17 0 19 2 27 5 18 2 -10 2 -26 0
-35z m10 -65 c-3 -8 -6 -5 -6 6 -1 11 2 17 5 13 3 -3 4 -12 1 -19z m10 -110
c-2 -13 -4 -5 -4 17 -1 22 1 32 4 23 2 -10 2 -28 0 -40z"/>
<path d="M2162 3742 c-111 -2 -123 -4 -118 -20 2 -9 7 -48 11 -87 3 -38 26
-232 50 -430 82 -657 115 -949 115 -1002 0 -66 -38 -151 -88 -194 -61 -54
-116 -73 -213 -73 -80 0 -92 3 -161 37 -72 35 -129 86 -185 162 -21 28 -22 29
-18 6 6 -32 -25 -98 -37 -79 -5 8 -6 3 -2 -14 4 -17 2 -28 -4 -28 -6 0 -8 -10
-5 -22 10 -44 -24 13 -37 62 -21 77 -6 141 61 267 83 155 127 196 244 224 28
6 55 13 62 15 6 1 14 22 18 46 3 24 12 84 20 133 8 50 17 114 21 144 l6 54
-123 -6 c-138 -5 -216 -25 -334 -84 -134 -68 -249 -218 -290 -378 -19 -77 -20
-253 0 -328 71 -274 357 -522 669 -582 86 -16 229 -12 311 10 104 26 259 109
324 173 48 47 60 66 71 112 25 104 14 275 -50 770 -26 201 -26 212 10 279 56
102 45 99 151 42 107 -56 207 -89 296 -98 l61 -6 7 58 c4 31 19 96 32 143 14
48 26 105 27 126 l1 40 -95 17 c-166 29 -266 82 -370 196 -29 31 -65 81 -82
110 -16 29 -34 56 -39 59 -5 3 -9 14 -9 24 0 10 -5 20 -10 22 -6 2 -12 24 -13
51 l-2 47 -67 0 c-36 0 -72 1 -80 3 -7 1 -68 1 -136 -1z m298 -189 c0 -31 -2
-54 -5 -52 -9 10 -13 109 -4 109 5 0 9 -25 9 -57z"/>
</g>
</svg>
