<?xml version="1.0" standalone="no"?>
<!DOCTYPE svg PUBLIC "-//W3C//DTD SVG 20010904//EN"
 "http://www.w3.org/TR/2001/REC-SVG-20010904/DTD/svg10.dtd">
<svg version="1.0" xmlns="http://www.w3.org/2000/svg"
 width="512.000000pt" height="512.000000pt" viewBox="0 0 512.000000 512.000000"
 preserveAspectRatio="xMidYMid meet">

<g transform="translate(0.000000,512.000000) scale(0.100000,-0.100000)"
fill="#000000" stroke="none">
<path d="M3357 4952 c-14 -16 -17 -43 -17 -171 0 -135 -2 -152 -17 -158 -10
-3 -42 -16 -72 -29 l-54 -24 -112 110 c-62 60 -120 110 -130 110 -29 0 -365
-339 -365 -368 0 -16 32 -56 105 -131 58 -59 105 -112 105 -117 0 -5 -12 -37
-26 -71 l-27 -63 -152 0 c-134 0 -154 -2 -168 -18 -15 -16 -17 -49 -17 -260 0
-297 -17 -272 190 -272 l146 0 31 -67 30 -68 -109 -111 c-76 -78 -108 -118
-108 -135 0 -17 46 -70 174 -197 153 -153 177 -173 197 -167 13 4 71 54 129
111 l105 104 70 -29 70 -30 3 -152 c2 -125 6 -156 19 -171 15 -16 37 -18 252
-18 130 0 241 4 247 8 27 18 34 56 34 194 l0 143 68 26 67 27 100 -98 c120
-117 134 -126 172 -106 16 8 97 84 181 168 126 128 152 159 152 184 0 23 -20
49 -106 135 l-106 107 28 71 29 71 152 0 c162 0 176 4 189 54 3 12 4 122 2
245 -3 207 -4 224 -22 237 -15 11 -56 14 -170 14 l-151 0 -29 71 -28 71 106
107 c86 86 106 112 106 135 0 25 -27 56 -157 189 -87 87 -168 163 -181 168
-34 13 -64 -7 -171 -114 l-93 -95 -67 27 -66 28 -5 157 c-4 141 -7 159 -24
172 -16 11 -68 14 -256 14 -217 0 -238 -2 -253 -18z m413 -251 c0 -107 4 -151
13 -159 6 -6 41 -20 76 -32 35 -12 89 -34 120 -49 38 -20 62 -26 76 -21 12 4
64 52 118 106 l97 99 110 -110 110 -109 -105 -107 c-58 -58 -105 -113 -105
-122 0 -9 15 -47 34 -84 18 -37 41 -92 51 -121 9 -29 25 -57 35 -62 10 -6 82
-10 159 -10 l141 0 0 -155 0 -155 -148 0 c-168 0 -169 0 -191 -80 -7 -25 -29
-75 -47 -112 -19 -37 -34 -75 -34 -84 0 -9 47 -65 105 -123 l105 -107 -110
-109 -110 -109 -108 107 c-60 59 -113 107 -118 107 -5 0 -31 -12 -58 -26 -27
-15 -81 -37 -119 -50 -38 -13 -76 -29 -83 -35 -11 -9 -14 -46 -14 -160 l0
-149 -155 0 -155 0 0 138 c0 161 -5 172 -83 198 -28 9 -82 32 -119 50 -40 20
-74 31 -85 28 -10 -4 -63 -51 -118 -105 l-100 -99 -110 110 -110 110 103 103
c111 111 117 125 81 183 -11 19 -34 71 -50 116 -16 45 -34 85 -41 90 -7 4 -77
8 -155 8 l-143 0 0 155 0 155 143 0 c167 0 163 -2 197 100 12 36 32 85 46 109
40 72 36 82 -77 193 l-102 100 109 109 109 109 100 -100 c115 -114 122 -117
213 -71 31 15 81 36 109 45 78 26 83 37 83 198 l0 138 155 0 155 0 0 -149z"/>
<path d="M3480 4234 c-206 -55 -351 -249 -351 -469 0 -319 297 -550 606 -470
175 46 317 196 354 373 52 247 -99 492 -348 566 -67 20 -187 20 -261 0z m282
-136 c79 -37 142 -98 181 -177 29 -59 32 -74 32 -156 0 -82 -3 -97 -32 -156
-102 -207 -359 -273 -544 -140 -206 147 -200 466 10 601 74 47 124 60 216 57
62 -2 93 -8 137 -29z"/>
<path d="M1197 3302 c-15 -16 -17 -46 -17 -211 l0 -192 -37 -15 c-21 -9 -67
-29 -102 -45 l-65 -30 -141 141 c-82 81 -150 140 -161 140 -25 0 -444 -419
-444 -444 0 -11 59 -79 141 -161 l141 -142 -25 -49 c-13 -27 -32 -70 -42 -96
l-17 -47 -193 -3 c-173 -3 -195 -5 -214 -22 -20 -19 -21 -27 -21 -311 0 -284
1 -292 21 -311 19 -17 41 -19 214 -22 l193 -3 17 -47 c10 -26 29 -69 42 -96
l25 -49 -141 -142 c-82 -82 -141 -150 -141 -161 0 -25 419 -444 444 -444 11 0
79 59 161 140 l141 141 65 -30 c35 -16 81 -36 102 -45 l37 -15 0 -194 c0 -175
2 -196 18 -210 16 -15 53 -17 308 -17 159 0 294 4 300 8 29 19 34 56 34 235
l0 184 48 18 c26 10 69 29 96 42 l49 25 142 -141 c80 -80 150 -141 160 -141
26 0 445 418 445 444 0 12 -56 76 -141 161 l-141 142 25 49 c13 27 32 70 42
97 l18 47 184 0 c179 0 216 5 235 34 10 14 10 588 0 602 -19 29 -56 34 -235
34 l-184 0 -18 48 c-10 26 -29 69 -42 96 l-25 49 141 142 c85 85 141 149 141
161 0 26 -419 444 -445 444 -10 0 -80 -61 -160 -141 l-142 -141 -49 25 c-27
13 -70 32 -96 42 l-48 18 0 184 c0 179 -5 216 -34 235 -6 4 -142 8 -302 8
-269 0 -292 -1 -307 -18z m523 -289 c0 -104 4 -194 8 -201 5 -7 44 -25 88 -41
43 -15 107 -42 141 -59 99 -51 100 -50 248 98 l130 130 147 -147 148 -147
-130 -132 c-144 -145 -148 -154 -106 -227 13 -23 38 -82 55 -130 49 -141 22
-127 246 -127 l195 0 0 -215 0 -215 -187 0 c-104 0 -193 -4 -200 -8 -6 -4 -24
-41 -39 -82 -14 -41 -42 -105 -60 -142 -19 -37 -34 -80 -34 -94 0 -22 28 -56
130 -158 l130 -132 -148 -147 -147 -147 -130 130 c-99 99 -136 130 -155 130
-15 0 -57 -15 -96 -34 -38 -18 -94 -41 -124 -51 -30 -10 -67 -24 -82 -32 l-28
-14 0 -194 0 -195 -209 0 -209 0 -4 188 c-2 135 -7 193 -16 204 -7 9 -34 21
-60 28 -26 6 -89 31 -141 56 -51 24 -105 44 -119 44 -19 0 -58 -32 -156 -130
l-132 -130 -147 148 -147 147 130 130 c149 149 149 148 96 253 -18 37 -41 92
-51 122 -10 30 -24 67 -32 83 l-14 27 -194 0 -195 0 0 215 0 215 194 0 c143 0
196 3 204 13 5 6 17 37 25 67 9 30 34 92 57 138 22 46 40 96 40 110 0 22 -28
55 -130 157 l-130 130 147 147 147 148 132 -130 c102 -102 136 -130 158 -130
14 0 57 15 94 34 37 18 97 43 133 55 110 36 104 21 107 240 l4 191 209 0 209
0 0 -187z"/>
<path d="M1345 2391 c-203 -58 -373 -233 -420 -432 -19 -82 -19 -206 0 -288
48 -202 226 -382 431 -435 79 -20 219 -20 297 0 207 53 378 224 432 431 19 73
19 223 0 296 -54 208 -224 377 -432 431 -81 21 -230 20 -308 -3z m304 -120
c76 -24 146 -68 203 -129 90 -96 128 -194 128 -328 0 -140 -48 -253 -148 -346
-103 -97 -202 -132 -352 -126 -91 3 -104 7 -182 45 -106 53 -174 122 -226 230
-36 77 -37 80 -37 199 l0 121 42 85 c64 128 159 209 298 254 62 20 203 17 274
-5z"/>
<path d="M3837 2242 c-14 -15 -17 -42 -17 -149 l0 -130 -59 -25 -59 -26 -93
94 c-68 68 -100 94 -118 94 -36 0 -321 -285 -321 -321 0 -18 25 -49 90 -114
50 -49 90 -95 90 -101 0 -6 -10 -34 -21 -63 l-22 -51 -132 0 c-115 0 -134 -2
-148 -18 -15 -16 -17 -47 -17 -229 0 -191 2 -211 18 -226 15 -14 42 -17 148
-17 l130 0 22 -53 c12 -29 22 -57 22 -62 0 -6 -40 -51 -90 -100 -65 -65 -90
-96 -90 -114 0 -36 285 -321 321 -321 18 0 49 25 114 90 49 49 95 90 101 90 6
0 34 -10 63 -21 l51 -22 0 -132 c0 -115 2 -134 18 -148 16 -15 47 -17 225 -17
263 0 247 -11 247 169 l0 128 51 22 c29 11 57 21 63 21 6 0 52 -40 101 -90 65
-65 96 -90 114 -90 36 0 321 285 321 321 0 18 -26 50 -94 118 l-93 93 23 56
23 57 133 3 c179 3 168 -14 168 247 0 261 11 244 -168 247 l-133 3 -23 57 -23
56 93 93 c68 68 94 100 94 118 0 36 -285 321 -320 321 -18 0 -51 -26 -117 -92
l-92 -92 -58 21 -58 20 -5 137 c-4 121 -7 139 -24 152 -16 11 -64 14 -226 14
-188 0 -208 -2 -223 -18z m353 -226 c0 -123 0 -125 26 -145 15 -12 34 -21 43
-21 9 0 49 -16 90 -35 40 -19 81 -35 92 -35 11 0 59 38 110 87 l90 87 87 -87
86 -86 -87 -89 c-55 -57 -87 -97 -87 -111 0 -12 13 -47 29 -79 16 -31 35 -76
42 -100 19 -65 35 -72 171 -72 l118 0 0 -125 0 -125 -120 0 c-115 0 -122 -1
-145 -25 -14 -13 -25 -32 -25 -42 0 -10 -16 -51 -35 -92 -19 -40 -35 -82 -35
-93 0 -12 35 -56 87 -110 l87 -89 -87 -86 -86 -87 -89 87 c-57 55 -97 87 -111
87 -12 0 -47 -13 -79 -29 -31 -16 -76 -35 -100 -42 -65 -19 -72 -35 -72 -171
l0 -118 -125 0 -125 0 0 119 c0 141 -3 147 -100 181 -36 12 -80 31 -98 41 -18
10 -42 19 -54 19 -12 0 -56 -34 -110 -87 l-89 -87 -86 87 -87 86 87 89 c94 97
101 114 68 168 -10 17 -29 60 -41 95 -34 96 -40 99 -181 99 l-119 0 0 125 0
125 118 0 c136 0 152 7 171 72 7 24 26 72 42 107 16 35 29 70 29 78 0 7 -39
54 -87 104 l-87 90 87 87 86 86 89 -87 c57 -55 97 -87 111 -87 12 0 47 13 79
29 31 16 76 35 100 42 65 19 72 35 72 171 l0 118 125 0 125 0 0 -124z"/>
<path d="M3990 1629 c-81 -14 -154 -52 -220 -115 -141 -134 -175 -327 -90
-500 81 -165 275 -265 451 -234 92 16 161 51 228 115 257 245 122 677 -229
734 -36 6 -69 10 -75 10 -5 -1 -35 -5 -65 -10z m200 -140 c127 -55 203 -201
178 -339 -35 -197 -250 -311 -429 -228 -199 92 -247 349 -93 501 93 93 224
117 344 66z"/>
</g>
</svg>
