<?xml version="1.0" standalone="no"?>
<!DOCTYPE svg PUBLIC "-//W3C//DTD SVG 20010904//EN"
 "http://www.w3.org/TR/2001/REC-SVG-20010904/DTD/svg10.dtd">
<svg version="1.0" xmlns="http://www.w3.org/2000/svg"
 width="450.000000pt" height="450.000000pt" viewBox="0 0 450.000000 450.000000"
 preserveAspectRatio="xMidYMid meet">

<g transform="translate(0.000000,450.000000) scale(0.100000,-0.100000)"
fill="#000000" stroke="none">
<path d="M880 3187 c-47 -38 -45 3 -50 -891 l-5 -841 -148 -2 c-82 -1 -155 -4
-163 -7 -19 -7 -18 -50 2 -91 32 -68 -24 -65 1054 -65 922 0 972 1 964 18 -4
9 -10 70 -12 135 l-4 117 -789 0 -789 0 0 770 0 770 1203 -2 1202 -3 3 -107 3
-108 49 0 50 0 0 131 0 131 -29 29 -29 29 -1249 0 c-966 -1 -1251 -3 -1263
-13z m1510 -1737 c0 -5 -9 -19 -20 -30 -19 -19 -33 -20 -221 -20 -195 0 -232
5 -251 34 -4 5 -4 14 -2 18 8 12 494 10 494 -2z"/>
<path d="M2602 2797 l-22 -23 0 -716 c0 -690 1 -717 19 -739 l19 -24 371 -3
371 -3 -10 26 c-6 15 -10 58 -10 96 l0 69 -340 0 -340 0 0 605 0 605 495 0
495 0 0 -95 0 -95 41 0 41 0 -4 139 c-3 120 -6 142 -22 160 -19 21 -23 21
-551 21 l-532 0 -21 -23z m574 -1375 c31 -21 18 -72 -19 -72 -27 0 -47 17 -47
40 0 32 38 51 66 32z"/>
<path d="M3417 2422 c-15 -17 -17 -70 -17 -555 0 -524 0 -537 20 -557 19 -19
33 -20 280 -20 247 0 261 1 280 20 20 20 20 33 20 558 0 509 -1 540 -18 555
-16 15 -51 17 -284 17 -244 0 -266 -1 -281 -18z m498 -527 l0 -410 -217 -3
-218 -2 0 408 c0 225 3 412 7 416 4 3 102 5 217 4 l211 -3 0 -410z m-185 -479
c6 -8 10 -25 8 -38 -2 -19 -9 -23 -38 -23 -29 0 -36 4 -38 23 -4 28 14 52 38
52 10 0 23 -7 30 -14z"/>
</g>
</svg>
